<?xml version="1.0" standalone="yes"?>
<svg xmlns="http://www.w3.org/2000/svg" width="225" height="225">
<path style="fill:#010101; stroke:none;" d="M0 0L0 225L79 225C85.7629 225 102.823 228.098 108.297 223.972C113.077 220.369 114.244 206.611 115 201C126.053 201.131 128.546 215.094 132 224L128 224L128 225L225 225L225 0L125 0L131 24L124 24C122.716 12.8458 114.206 22.6912 108 22L117 0L0 0z"/>
<path style="fill:#ffffff; stroke:none;" d="M108 22C114.554 23.3599 121.785 13.3786 124 24L131 24L125 0C114.126 0.0384827 110.062 12.3767 108 22M83 2C84.4223 8.87273 85.3409 26.6043 95 24C93.0642 16.521 92.9583 0.456177 83 2M140 2C137.424 8.67841 129.074 23.2005 138 27L142 13L143 13C143.293 16.712 144.797 34.7411 152.349 29.9282C156.915 27.0183 158.633 14.0098 160 9L154 7L151 20L150 20L147 4L140 2z"/>
<path style="fill:#010101; stroke:none;" d="M120 7L118 13L122 13L120 7z"/>
<path style="fill:#ffffff; stroke:none;" d="M59 12C61.5404 19.0022 64.7813 33.9413 74 32L71 23C76.3849 25.9825 79.7212 28.1089 86 27L77 20C79.5314 6.15079 68.5096 6.9366 59 12z"/>
<path style="fill:#010101; stroke:none;" d="M67 14L68 18C71.0359 16.9996 71.4943 16.1372 71 13L67 14z"/>
<path style="fill:#ffffff; stroke:none;" d="M180 32C173.76 28.5959 168.354 26.84 171 36C165.775 33.3627 165.16 26.2401 172.005 24.6119C175.363 23.8129 177.611 27.3832 180.851 27.2531C182.501 27.1868 183.717 25.834 183.248 24.1813C180.059 12.9419 163.122 18.4026 160.638 27.0008C158.794 33.3844 164.329 45.0893 172.621 42.2917C176.161 41.0973 178.676 35.1495 180 32M48 48L54 45C51.4242 34.3461 60.9944 38.5076 67 35C63.8544 31.1939 45.2047 15.5204 41.6435 24.3441C39.4285 29.8324 45.9521 42.6822 48 48z"/>
<path style="fill:#010101; stroke:none;" d="M48 29L49 34L53 32L53 31L48 29z"/>
<path style="fill:#ffffff; stroke:none;" d="M176 46L185 58L186 58C188.48 54.1632 188.148 52.1177 184 50C186.654 45.5207 190.567 49.5776 195 49L191 41C193.378 41.5129 197.33 44.5191 199.663 43.6559C204.929 41.7073 195.525 32.5417 192.001 32.9174C186.218 33.5339 180.502 42.6574 176 46M23 41L23 42L32 54C27.9845 53.0484 22.2188 49.3688 18.1088 50.6968C7.17581 54.2292 26.0174 66.2893 29.9807 67.5741C37.9727 70.1649 30.2593 60.4138 26 59L26 58L39 62C41.0531 55.8672 38.3212 53.0486 35 48L44 54L47 48C39.1609 43.5345 30.8653 32.1028 23 41z"/>
<path style="fill:#010101; stroke:none;" d="M34 47L35 48L34 47z"/>
<path style="fill:#ffffff; stroke:none;" d="M195 74L200 72L196 63L211 54L211 53L208 49C203.333 50.7894 189.863 56.6499 188.997 62.1042C188.369 66.0559 192.947 70.9546 195 74z"/>
<path style="fill:#010101; stroke:none;" d="M32 54L33 55L32 54z"/>
<path style="fill:#ffffff; stroke:none;" d="M97 68C105.798 72.6115 119.202 72.6115 128 68C123.566 59.7629 101.434 59.7629 97 68z"/>
<path style="fill:#010101; stroke:none;" d="M103 68L122 68C118.57 62.6895 106.43 62.6895 103 68z"/>
<path style="fill:#ffffff; stroke:none;" d="M59 162C70.2563 156.297 72.197 141.013 78.4344 131.171C83.4823 123.205 90.2969 120.521 93 111L97 115C98.4404 109.614 103.149 103.374 103.378 98C103.561 93.7198 99.3265 90.7597 97.892 87C95.1844 79.904 91.583 54.7745 78.9892 71.108C71.0482 81.4071 69.1761 98.4724 67.8341 111C65.9816 128.293 62.9017 145.135 59 162M128 115L132 111C134.703 120.521 141.518 123.205 146.566 131.171C152.803 141.013 154.744 156.297 166 162C162.098 145.135 159.018 128.293 157.166 111C155.824 98.4724 153.952 81.4071 146.011 71.108C133.417 54.7746 129.816 79.904 127.108 87C125.673 90.7597 121.439 93.7198 121.622 98C121.851 103.374 126.56 109.614 128 115M24 92L24 76C28.4414 76.7405 30.0902 75.36 31 71C25.0409 71 11.4575 67.3667 6.56481 71.0278C-1.466 77.037 19.1425 90.6499 24 92M206 83L204 83L202 74C190.163 79.024 204.254 95.0657 210.91 86.5664C213.091 83.7818 213.178 79.3342 214 76L216 76C216.864 80.3348 217.381 82.9929 222 84C221.984 78.3022 217.661 63.5176 209.589 72.4336C207.251 75.0159 206.917 79.7366 206 83z"/>
<path style="fill:#010101; stroke:none;" d="M12 76L12 77C14.8883 78.0532 16.1769 78.5876 18 76L12 76z"/>
<path style="fill:#ffffff; stroke:none;" d="M7.04398 107.028C-3.60488 112.702 5.74509 128.4 15.956 122.972C26.5834 117.323 17.3736 101.523 7.04398 107.028M209.044 107.028C198.396 112.702 207.656 128.296 217.956 122.821C228.581 117.173 219.302 101.561 209.044 107.028M198 137C193.842 141.869 189.639 155.089 201.001 153.728C204.865 153.264 207.915 150.098 211 148L212 149L207 158C216.296 159.917 221.096 145.917 211.956 142.786C207.174 141.148 202.549 146.17 198 147C200.732 142.951 202.007 140.468 198 137M6 144L8 150L14 149L16 157C12.3134 159.09 12.7394 161.219 14 165C18.4783 163.104 38.615 149.621 30.5656 144.028C24.8914 140.085 12.4726 143.946 6 144z"/>
<path style="fill:#010101; stroke:none;" d="M20 152L26 149C22.8281 147.896 21.0909 148.891 20 152z"/>
<path style="fill:#ffffff; stroke:none;" d="M20 175L29 170C21.5483 181.839 26.0302 182.502 38 180L38 181L29 186L31 191L51 179C48.457 168.43 39.3725 174.028 32 176C33.689 174.048 35.3383 172.096 36.8449 169.995C50.1239 151.481 14.7869 162.263 20 175M185 161L183 166L204 178C205.744 174.724 209.324 170.757 209.84 167.059C210.868 159.68 203.092 167.732 202 170L185 161z"/>
<path style="fill:#010101; stroke:none;" d="M29 169L30 170L29 169z"/>
<path style="fill:#ffffff; stroke:none;" d="M172 180L188 195L189 195C193.286 191.004 198.509 187.183 196 181L188 186L187 185C193.126 174.24 187.277 178.213 180 179C188.636 166.082 174.735 170.255 172 180M38 195L49.0069 199.256L56 210C58.0791 205.169 67.3597 185.069 58.9414 183.133C52.999 181.766 42.7131 191.82 38 195M176 190C170.849 190.997 166.718 193.303 168 199L174 199L174 201C163.681 202.585 161 191.431 171 188L170 182C167.161 182.82 164.434 183.804 162.055 185.638C160.209 187.061 158.732 188.812 157.894 191.004C154.718 199.313 162.11 209.126 171 207.645C175.492 206.897 181.549 203.32 180.239 197.999C179.543 195.171 177.398 192.524 176 190z"/>
<path style="fill:#010101; stroke:none;" d="M52 194L55 195L56 191L52 194z"/>
<path style="fill:#ffffff; stroke:none;" d="M72 208C72.4588 213.813 72.2804 219.227 79 220L77 209C89.7104 205.903 81.0897 189.281 71.3935 192.708C67.4756 194.092 63.1742 206.101 62.588 209.956C62.1184 213.044 64.4491 215.64 67.3696 213.357C69.1563 211.961 70.364 209.604 72 208M146 195L150 208C143.229 202.799 140.059 197.887 131 199L138 222C145.516 220.359 141.24 213.36 140 208C141.659 209.655 143.291 211.353 145.025 212.931C146.247 214.042 147.53 215.305 149 216.092C163.654 223.938 152.726 198.85 152 194L146 195z"/>
<path style="fill:#010101; stroke:none;" d="M74 199L73 203L77 204L74 199z"/>
<path style="fill:#ffffff; stroke:none;" d="M90 199C88.9081 206.421 80.7239 220.061 90 224L96 200L90 199M115 201L109 225L116 225L116 220L124 219L126 225L132 224C129.379 214.416 126.175 201.04 115 201z"/>
<path style="fill:#010101; stroke:none;" d="M139 207L140 208L139 207M119 208L118 214L122 214L119 208M116 220L116 225L126 225L124 219L116 220z"/>
</svg>
